<svg width="1920" height="960" viewBox="0 0 1920 960" fill="none" xmlns="http://www.w3.org/2000/svg">
<rect width="1920" height="960" fill="#141414"/>
<g clip-path="url(#clip0_101_324)">
<path d="M670.002 452.269C657.968 454.382 645.722 455.016 633.054 456.703L594.415 343.534V461.56C582.38 462.827 571.402 464.516 560 466.205V250H592.094L636.009 372.673V250H670.002V452.269ZM736.511 329.177C749.602 329.177 769.66 328.543 781.695 328.543V362.324C766.703 362.324 749.18 362.324 736.511 362.958V413.209C756.359 411.943 776.205 410.252 796.262 409.619V442.132L702.728 449.523V250H796.262V283.782H736.511V329.177ZM921.889 283.783H886.841V439.18C875.439 439.18 864.038 439.18 853.06 439.601V283.783H818.012V250H921.891L921.889 283.783ZM976.784 326.855H1023.02V360.636H976.784V437.28H943.634V250H1038.01V283.782H976.784V326.855ZM1092.91 407.72C1112.12 408.141 1131.55 409.621 1150.34 410.675V444.035C1120.15 442.134 1089.95 440.236 1059.13 439.601V250H1092.91V407.72ZM1178.84 446.358C1189.61 446.992 1201.01 447.626 1211.99 448.891V250H1178.84V446.358ZM1360 250L1317.14 352.824L1360 466.205C1347.33 464.516 1334.66 462.193 1321.99 460.081L1297.71 397.586L1273.01 455.016C1260.76 452.902 1248.94 452.269 1236.7 450.58L1280.19 351.556L1240.92 250H1277.23L1299.4 306.796L1323.05 250H1360V250Z" fill="#B9090B"/>
</g>
<path d="M775.056 622.093C775.056 611.821 777.024 602.797 780.96 595.021C784.992 587.149 790.56 581.005 797.664 576.589C804.768 572.077 812.88 569.821 822 569.821C833.808 569.821 843.216 572.797 850.224 578.749C857.328 584.605 862.08 592.573 864.48 602.653H850.224C848.592 596.413 845.376 591.469 840.576 587.821C835.776 584.173 829.584 582.349 822 582.349C815.568 582.349 809.856 583.981 804.864 587.245C799.872 590.413 795.984 594.973 793.2 600.925C790.416 606.877 789.024 613.933 789.024 622.093C789.024 630.157 790.416 637.165 793.2 643.117C795.984 649.069 799.872 653.677 804.864 656.941C809.856 660.205 815.568 661.837 822 661.837C829.584 661.837 835.824 660.061 840.72 656.509C845.616 652.861 848.832 648.109 850.368 642.253H864.48C862.176 651.949 857.472 659.725 850.368 665.581C843.264 671.437 833.808 674.365 822 674.365C812.88 674.365 804.768 672.157 797.664 667.741C790.56 663.229 784.992 657.037 780.96 649.165C777.024 641.293 775.056 632.269 775.056 622.093ZM881.597 672.205V567.805H894.413V672.205H881.597ZM947.01 674.221C940.098 674.221 933.954 672.589 928.578 669.325C923.202 666.061 918.978 661.501 915.906 655.645C912.93 649.789 911.442 643.021 911.442 635.341C911.442 627.661 912.93 620.893 915.906 615.037C918.978 609.181 923.202 604.621 928.578 601.357C933.954 598.093 940.098 596.461 947.01 596.461C954.018 596.461 960.162 598.093 965.442 601.357C970.818 604.621 974.994 609.181 977.97 615.037C981.042 620.893 982.578 627.661 982.578 635.341C982.578 643.021 981.042 649.789 977.97 655.645C974.994 661.501 970.818 666.061 965.442 669.325C960.162 672.589 954.018 674.221 947.01 674.221ZM947.01 662.413C953.634 662.413 959.01 659.965 963.138 655.069C967.362 650.077 969.474 643.501 969.474 635.341C969.474 627.085 967.362 620.509 963.138 615.613C959.01 610.717 953.634 608.269 947.01 608.269C940.386 608.269 934.962 610.717 930.738 615.613C926.61 620.509 924.546 627.085 924.546 635.341C924.546 643.501 926.61 650.077 930.738 655.069C934.962 659.965 940.386 662.413 947.01 662.413ZM1012.4 628.573V672.205H999.581V598.477H1012.11V608.413C1014.7 604.573 1018.01 601.645 1022.05 599.629C1026.08 597.517 1030.49 596.461 1035.29 596.461C1040.77 596.461 1045.42 597.757 1049.26 600.349C1053.2 602.941 1056.22 606.493 1058.33 611.005C1060.45 615.517 1061.5 620.701 1061.5 626.557V672.205H1048.69V629.005C1048.69 622.573 1047.25 617.533 1044.37 613.885C1041.58 610.141 1037.36 608.269 1031.69 608.269C1028.33 608.269 1025.17 609.085 1022.19 610.717C1019.21 612.253 1016.81 614.557 1014.99 617.629C1013.26 620.605 1012.4 624.253 1012.4 628.573ZM1113.37 674.221C1106.07 674.221 1099.74 672.637 1094.36 669.469C1089.08 666.301 1085 661.789 1082.12 655.933C1079.24 650.077 1077.8 643.165 1077.8 635.197C1077.8 627.709 1079.19 621.085 1081.98 615.325C1084.86 609.469 1088.89 604.861 1094.07 601.501C1099.35 598.141 1105.64 596.461 1112.94 596.461C1119.95 596.461 1125.85 598.045 1130.65 601.213C1135.45 604.285 1139.1 608.605 1141.59 614.173C1144.09 619.645 1145.34 626.077 1145.34 633.469V639.517H1091.05C1091.72 647.005 1093.98 652.765 1097.82 656.797C1101.66 660.733 1106.89 662.701 1113.51 662.701C1117.83 662.701 1121.48 661.981 1124.46 660.541C1127.53 659.005 1129.55 657.037 1130.51 654.637H1143.75C1142.03 660.589 1138.43 665.341 1132.95 668.893C1127.48 672.445 1120.95 674.221 1113.37 674.221ZM1112.79 607.981C1106.75 607.981 1101.85 609.853 1098.11 613.597C1094.46 617.245 1092.2 622.333 1091.34 628.861H1132.38C1132.09 622.621 1130.31 617.581 1127.05 613.741C1123.88 609.901 1119.13 607.981 1112.79 607.981Z" fill="#B9090B"/>
<defs>
<clipPath id="clip0_101_324">
<rect width="800" height="216.205" fill="white" transform="translate(560 250)"/>
</clipPath>
</defs>
</svg>
